<?xml version="1.0" encoding="utf-8"?>
<!-- Generator: Adobe Illustrator 23.0.6, SVG Export Plug-In . SVG Version: 6.00 Build 0)  -->
<svg version="1.1" id="Layer_1" xmlns="http://www.w3.org/2000/svg" xmlns:xlink="http://www.w3.org/1999/xlink" x="0px" y="0px"
	 width="740px" height="680px" viewBox="0 0 740 680" style="enable-background:new 0 0 740 680;" xml:space="preserve">
<style type="text/css">
	.st0{fill-rule:evenodd;clip-rule:evenodd;fill:#69A1AC;}
	.st1{opacity:0.5;}
	.st2{fill-rule:evenodd;clip-rule:evenodd;fill:#89C5CC;}
	.st3{opacity:0.5;fill-rule:evenodd;clip-rule:evenodd;fill:#C1DEE2;enable-background:new    ;}
	.st4{fill-rule:evenodd;clip-rule:evenodd;fill:#C1DEE2;}
</style>
<title>Scene/Whiteboard</title>
<desc>Created with Sketch.</desc>
<g>
	<path id="Background-Shape" class="st0" d="M53.8,519.9c16.3-84,181.3-36.1,289.5-62.1s236.1-146.9,320.8-87.6
		s-5.4,202.4-199.7,234.7C270.2,637.1,37.5,603.8,53.8,519.9z"/>
	<g id="Cells" transform="translate(95.000000, 125.000000)" class="st1">
		<path id="Fill-5" class="st2" d="M1.9,2.7c-1.6,1.6-1,7.2-1,9.2c-0.1,3.2,0.1,6.4,0.4,9.6c0.2,2.1,1.2,22.6,4,21
			c1.6-0.9,0.6-6.8,0.6-8.7c0-4.2-0.2-8.3-0.5-12.5C5.1,17.4,5,13.6,5.1,9.8C5.3,8.9,6.1-1.6,1.9,2.7"/>
		<path id="Fill-7" class="st2" d="M70.4,0.1c-13.5,0.1-27,0.8-40.5,1.2c-6.5,0.2-13,0.4-19.5,0.8c-2.2,0.1-7-0.6-8.8,0.6
			C-2.5,5.3,4.1,6,5.9,5.9c26.7-1,53.5-2.2,80.2-2.3c13.1,0,26.2,0.3,39.4,0.3c5,0,10.6-2.2,11.8,3.6c1.4,6.6-0.2,13.9-0.7,20.5
			c-0.3,4.4-0.2,8.7,0,13.2c0.1,2.8-0.2,6,0.3,8.8c0.5,2.7,2.4,4.3,4.2,1.3c1.1-1.8,0.5-6.2,0.6-8.3c0.1-2.8,0-5.6,0-8.4
			c0-6.8,1-13.6,0.8-20.4c-0.1-4.4-0.3-12.4-5.9-13.4c-6.1-1.2-13.6,0-19.9-0.1C101.3,0.5,85.9,0,70.4,0.1"/>
		<path id="Fill-9" class="st2" d="M33.2,42.8c-5.1,0-10.2,0-15.3,0.1C13.5,43,6.6,42.1,2.6,43.6c-2.8,1.1-3.5,4.2,0,5
			c3.8,0.9,9.6-0.6,13.7-0.6c20.2-0.4,40.5-0.8,60.7,0.5c18.9,1.2,38.1,2.4,57,1.1c1.6-0.1,9.7-0.4,6-3.5
			c-2.2-1.8-10.9-0.6-13.7-0.7c-9.9-0.3-19.8-0.4-29.7-0.7c-9.8-0.4-19.5-1.5-29.2-1.7C55.9,42.6,44.5,42.8,33.2,42.8"/>
		<path id="face" class="st2" d="M28.1,13.8c7.9,0.3,15.8,11.9,7.8,17.4c-7.5,5.2-21.7-0.5-17.5-10.6c-0.6,1.5,0.8-1.6,0.8-1.6
			c0.8-0.9,2.2-2,3.2-2.7c1.1-0.8,2.3-1.8,3.7-2.2C26.9,13.8,26.8,14.8,28.1,13.8 M24.2,9.6c-3.7,1.5-5.4,3.1-8,6.1
			c-1.8,2.1-4,3.1-4,5.9c0,0.6,0.8,1.3,0.9,1.9c0.2,0.8,0,1.9,0.1,2.7c1.5,8.9,12.2,12,20,10.3c6.8-1.5,11.9-8,10.3-15.1
			C42.1,14.2,31.4,6.8,24.2,9.6"/>
		<path id="Fill-13" class="st2" d="M20.9,22.1c0,3.2,5.1,3.2,5.1,0C26,19,20.9,18.8,20.9,22.1"/>
		<path id="Fill-15" class="st2" d="M27.3,21.5c0,2.6,4,2.6,4,0C31.3,19,27.3,18.9,27.3,21.5"/>
		<path id="Fill-17" class="st2" d="M28.5,26.8c-1.3,0.5-2.9-0.5-4,0.1c-1.9,1.2,0,2.3,1,2.8C30.1,31.9,30.9,25.9,28.5,26.8"/>
		<path id="Fill-19" class="st2" d="M97.8,19.6C97.7,19.7,97.2,19.9,97.8,19.6 M78.1,16.7c-3.4,0.8-6.3,3.9-10,3.5
			c-2.8-0.3-4.7-3.1-7.5-3.5c-3.6-0.5-13.3,7.6-8.2,9c3,0.8,4.6-4.6,7.3-4.9c2.1-0.2,4.9,2.3,7.1,2.7c4,0.7,6.8-1.5,10.3-3
			c3.8-1.6,6-0.2,9.4,1.6c2.6,1.4,5.1,2.3,8.1,1.7c2.8-0.5,6.4-3.4,9.2-3.1c2.8,0.3,4.8,3.2,7.7,3.5c1.2,0.1,2.9,0.5,2.7-1.3
			c-0.2-1.5-1.8-1.2-2.8-1.7c-2.6-1.4-5.1-3.8-8.3-3.6c-2.4,0.2-4.6,1.8-6.8,2.6C89.2,22.9,85.2,15.1,78.1,16.7"/>
		<path id="Fill-21" class="st0" d="M84.1,63.1c-13.9,0.1-27.8,0.3-41.7,1.4C39.1,64.8,5.6,68,5.7,68.2c0.1,0.4,4.4,1.1,4.4,1.2
			c-0.3-0.7-1-1-2-0.9c31.8,0,63.5-2.8,95.3-2.3c8,0.1,16,0.1,24,0.3c2,0.1,6.9,1.5,8.5,0.6c4.1-2.4-3.4-2.6-4.6-2.7
			C115.7,63.1,99.8,63,84.1,63.1"/>
		<path id="Fill-23" class="st0" d="M1.6,69.9c-2.1,2.1-0.2,9.6-0.1,12.4c0.1,4.1,0,8.2,0.4,12.2c0.4,4.6,1,9.6,2.3,14.1
			c0.7,2.5,3,6.4,4,1.9c0.7-3.2-0.3-7.5-0.7-10.8C6.9,95.3,6.8,91,6.8,86.6c0-3.8-0.1-7.7-0.4-11.5C6.2,73.1,5.2,66.2,1.6,69.9"/>
		<path id="Fill-25" class="st0" d="M53.8,108c-9.9,0.2-19.7,0.4-29.6,1c-4,0.3-8.1,0.6-12.1,1.1c-0.8,0.1-9.9,0.5-5.8,3.8
			c1.8,1.5,9.4-0.6,11.8-0.8c4.2-0.4,8.4-0.6,12.6-0.8c9.7-0.4,19.5-0.8,29.2-0.6c17.8,0.3,35.4,0.4,53.2,0c2.5-0.1,22.3,0.5,23-2.2
			c0.5-2.1-6.5-1.1-7.8-1.1c-4.7,0.1-9.5,0.1-14.2,0.1C94,108.5,73.8,107.7,53.8,108"/>
		<path id="Fill-27" class="st0" d="M132.7,66.3c0.3,8.8,1.8,17.5,2.3,26.3c0.2,4,0.5,8,0.7,12.1c0.1,1.3-0.5,4.4,1.1,5.2
			c2.1,1,2.4-1,2.8-2.4c1.1-4,0.4-9.3,0.3-13.4c-0.1-4-0.1-8-0.4-12c-0.3-4.1-1.1-8.1-1.5-12.2c-0.2-1.7,0.4-4.6-1.4-5.7
			C134.9,63.3,132.7,64.4,132.7,66.3"/>
		<path class="st0" d="M35.8,80.9L35.8,80.9C35.9,81,35.9,81,35.8,80.9 M27.5,78.3c3.1,0.9,5.7,0.6,8.7,2.8c2.5,1.9,5,4.6,5.8,7.7
			c1.9,7-4.5,10.9-10.6,11c-6.2,0.1-15.3-1.4-15-9.3C16.7,84.5,21.1,78.6,27.5,78.3 M27.7,74.4c-8.1,0.4-14.6,9.5-14.6,17.2
			c0.1,9.3,10.6,11.7,18.1,11.7c8.4,0.1,16.8-5.7,14.6-15.2C44,80.4,35.5,74,27.7,74.4"/>
		<path id="Fill-31" class="st0" d="M19.5,86.8c0,2.6,4.1,2.6,4.1,0C23.6,84.3,19.5,84.2,19.5,86.8"/>
		<path id="Fill-33" class="st0" d="M28.1,85.7c0,2.6,4.1,2.6,4.1,0S28.1,83,28.1,85.7"/>
		<path id="Fill-35" class="st0" d="M23.4,91.6c-2.7,2.7,6.7,7.3,8.9,3.6c1.8-3-2.1-2-3.5-2.2C27.2,92.8,24.6,90.4,23.4,91.6"/>
		<path id="Fill-37" class="st0" d="M98.1,85.7C97.9,85.8,97.9,85.8,98.1,85.7 M63,81.4c-2.7,0.5-11.5,3.5-11.7,6.7
			c-0.2,5.8,8.4-0.1,10.3-0.9c5.1-2.1,7.8,2.2,12.9,2.4c4.5,0.2,8.6-3.6,12.8-3.2c4.4,0.5,6.5,5.2,11.6,2.7c2.7-1.3,2.6-3.3-0.4-3.5
			c-1.8-0.1-3.1,0.6-5-0.1c-3-1.2-4.2-3.2-7.7-2.9c-2.7,0.2-5.1,1.8-7.7,2.3C72.1,86.2,68.8,80.3,63,81.4"/>
		<path id="point" class="st0" d="M118.8,88.3C118.6,88.3,118.6,88.3,118.8,88.3 M119.5,85.8C119.5,85.9,119.7,86.1,119.5,85.8
			 M116.4,84C116.3,84.1,116.3,84.1,116.4,84 M116.5,84c0.6,0.4,5.4,3.7,1.9,4.4C116.6,88.8,115.1,85.2,116.5,84 M114.9,80.3
			c-7.7,3.5,0.6,16.1,6.6,11c2.5-2.2,2.9-6.5,0.4-8.7C120.4,81.2,116.9,79.4,114.9,80.3"/>
		<path id="Fill-41" class="st2" d="M42.5,129.9c-9.6,0-19.3-0.2-28.9,0.4c-1.6,0.1-7.8-0.2-8.6,1.5c-1.5,3.1,4.8,1.6,5.7,1.5
			c19.1-1.9,39.1-0.8,58.3-0.3c15.7,0.4,31.3,0.7,47,1.5c4.1,0.2,8.2,0.4,12.4,0.7c1.3,0.1,4.7,1,5-1.2c0.3-2-4-1.5-5-1.6
			c-8.4-0.4-16.7-0.9-25.1-1.4C83.1,129.9,62.7,129.9,42.5,129.9"/>
		<path id="Fill-43" class="st2" d="M4.6,133.4c-1.8,1.8-1,8.6-1,10.9c-0.1,3.9-0.3,7.9-0.4,11.8c-0.1,4.1,0,8.3,0.3,12.4
			c0.1,1.7,1.5,10.1,3.8,5.3c1-2.1,0-8.1,0-10.5c0-4.4,0.3-8.8,0.5-13.2c0.2-3.8,0.2-7.6,0.4-11.3C8.2,137.5,8.3,129.6,4.6,133.4"/>
		<path id="Fill-45" class="st2" d="M135,168.6c-9.4,1-18.9,0.5-28.3,1.2c-8.1,0.6-16.2,0.9-24.3,1c-18.4,0.4-36.8,0.8-55.2,2.3
			c-4.2,0.3-8.4,0.7-12.5,0.9c-2.1,0.1-10.9-0.9-11.5,1.3c-1.1,3.8,8.3,2.3,10.3,2.2c4.5-0.1,8.9-0.5,13.4-0.8
			c18.7-1.4,37.5-1.9,56.2-2.4c10.2-0.3,20.3-1.1,30.5-1.7c5.1-0.3,10.2-0.3,15.2-0.7c1.3-0.1,6,0.1,7-1
			C136.3,170.2,136.5,168.5,135,168.6"/>
		<path id="Fill-47" class="st2" d="M131.8,134c0.3,9,0.8,18,1.1,26.9c0.1,2.7-0.7,7.5,0.8,9.9c2.4,3.8,4.3-0.2,4.7-2.6
			c1.4-7.5-0.1-15.9-0.5-23.4c-0.1-2.9,0.7-9.3-0.6-11.9C136,130.4,131.7,130.7,131.8,134"/>
		<path class="st2" d="M116.1,146.8c3.6,1,4.1,8.8,0.1,9.4C110.1,157,112.8,148.4,116.1,146.8 M115.1,143.7c-1.1,0-3.6-0.3-4.3,0.6
			c-0.6,0.7,0,2.3-0.1,3c-0.2,2.5-2.3,4-1.4,7c0.6,2,2.3,3.9,4.3,4.7C124.5,162.7,124.3,141.8,115.1,143.7"/>
		<path id="Fill-51" class="st2" d="M17.7,145.1l-0.1,0.1C17.6,145.2,17.7,145.1,17.7,145.1 M26.2,140.6c0-0.4-0.1-0.7-0.1-1.1
			c5.8,2.8,10.5,7.9,8.6,14.8c-1.5,5.3-6.8,7.1-11.8,5.8c-5.5-1.4-8.2-6-6.7-11.6c0.7-2.6,2.8-6,5.5-6.9
			C22.9,141.3,25.7,142.3,26.2,140.6 M22.8,138.4c-1.5,0.1-2.9,0.7-4.1,1.6C19.8,139,21.3,138.4,22.8,138.4 M22.8,135
			c-3.7,0.1-6,2.3-8.2,5c-0.7,0.8-3,3-2.7,4.2c0.2,0.9,0.8,2.2,2.1,1.2c-6.5,12.9,10.3,24,20.5,15C44,151.9,34.6,134.6,22.8,135"/>
		<path id="Fill-53" class="st2" d="M19.5,147c0,1.7,2.7,1.7,2.7,0S19.5,145.3,19.5,147"/>
		<path id="Fill-55" class="st2" d="M24,147.3c0,1.8,2.7,1.8,2.7,0C26.8,145.6,24,145.6,24,147.3"/>
		<path id="Fill-57" class="st2" d="M26.1,153.5c-1.3,0.1-5.9-0.3-6.7,0.8c-1.4,1.9,0.8,1.9,1.9,2.1c1,0.2,5.2,0.1,5.7-0.8
			C27.5,154.9,27.4,153.4,26.1,153.5"/>
		<path id="Fill-59" class="st2" d="M82.2,148.7C82,148.7,82,148.7,82.2,148.7 M64.6,147.4c-2.9,0.2-5.3,1.9-8,2.5
			c-2.9,0.7-4.2-0.6-6.9-1.4c-2.8-0.9-4.7-0.5-7,1.4c-1.3,1.1-4,3.5-3.2,5.4c1.8,4.4,5.9-2.7,7.8-3.1c3-0.5,5.7,2.1,9.1,1.4
			c3.1-0.7,5.9-2.8,9.2-2.9c2.7,0,5.3,1.5,8,1.8c4.1,0.6,6.8-0.9,10.6-2c3.3-0.9,5.6,0.3,8.7,1.3c1.4,0.5,6.2,2.2,5.3-0.9
			c-0.2-0.9-6.5-2.5-7.5-2.8c-3.4-1.1-5.6-0.7-8.8,0.6c-2.7,1-5,1.5-7.9,1C70.9,149.1,68,147.1,64.6,147.4"/>
	</g>
	<g id="Big-Cards" transform="translate(287.000000, 64.000000)" class="st1">
		<path id="Fill-67" class="st0" d="M4.6,64C5,54.1,5.7,44.1,6,34.2c0.2-4.9,0.3-9.9,0.4-14.8c0-1.1,0.1-2.2,0.1-3.3
			c0.1-3.7-0.4-4,3.4-4.4c16.8-1.5,33.6-2,50.4-3.3c20.2-1.6,40.6-2.7,60.9-3.2c9-0.2,18.1-0.7,27.1-0.4c2,0.1,5.9-0.5,6.7,1.1
			c0.3,0.7-0.4,3-0.5,3.8c-0.3,2.4-0.5,4.8-0.7,7.3c-1,14.3-0.4,29.1,2.4,43.2c-6.5-3.7-14.8-6.8-22.3-6.2
			c-7.7,0.6-13.5,5.1-19.7,9.2c-3.5,2.3-4.7,2.9-8.2,0.7c-3-1.9-5.9-4.2-8.7-6.4c-4.4-3.4-8.5-7-12.8-10.6
			c-7.8-6.5-18.6-15.7-29.4-13c-7.7,1.9-14.9,6.2-21.6,10.3C23.6,50.4,14.5,57.9,4.6,64 M138.8,0.3C100.3,0.3,62.1,4,23.8,6
			c-4,0.2-8,0.5-12,0.9C9.1,7.2,2.6,6.1,0.9,8.4c-1.2,1.5-0.2,1.7,0,3.2c0.2,1.8,0.1,4,0,5.9c-0.1,4.6-0.3,9.3-0.4,13.9
			c-0.4,17.5-0.6,35,0.1,52.5c0.2,3.8,1.5,9.1,0.8,12.8c-0.6,2.7-2.4,4.3,1.9,4.8c4.2,0.5,9.3-0.8,13.5-1.2
			c4.2-0.4,8.4-0.8,12.6-1.2c18.3-1.5,36.8-1.3,55.2-1.8c18.5-0.5,37.1-0.5,55.6-0.5c7.8,0,16.6,0.4,24.2-1.7
			c2.7-0.8,3.1-1.1,2.4-3.8c-0.1-0.5-0.9-0.7-1.2-1.6c-0.3-1.2-0.2-2.7-0.2-4c-0.2-4.2-0.3-8.4-0.5-12.6c-0.3-7-1.5-13.8-2.4-20.7
			c-1-8-1-16.1-1-24.2c0-4.5,0.1-8.9,0.5-13.4c0.2-2.9,1.6-7.1,0.9-9.8c-0.4-1.3-0.9-2.4-2.3-3c-0.9-0.4-1.6-0.1-2.5-0.2
			c-1-0.1-1.7-0.3-2.9-0.5C149.8,0.2,144.2,0.3,138.8,0.3"/>
		<path id="Fill-69" class="st2" d="M117.5,19.4c0,2.8-0.4,6.9,0.8,9.5c1.6,3.3,3.7,2.3,4.2-0.8c0.3-1.8,0.3-7.1-0.3-8.7
			C121.5,17.1,117.5,15.6,117.5,19.4"/>
		<path id="Fill-71" class="st2" d="M122.2,20.4c-2.6,0.1-10.2-0.5-12,1.6c-3,3.6,2.3,4.2,4.5,4c2.6-0.2,10.7,0.3,12.5-1.8
			C130.1,20.7,124.2,20.4,122.2,20.4"/>
		<path id="Fill-73" class="st2" d="M20.6,113.6c11.5,2,7.9,19.5-3,15.5c-3.8-1.4-9.4-5.5-7.3-10.3C11.9,115.1,17,113.2,20.6,113.6
			 M15.8,108.1c-7.5,1.3-12.6,9.4-10,16.4c2.5,6.8,11.9,11.8,18.8,9.4c6.6-2.3,9.9-11.1,7.7-17.6C29.9,109.6,22.3,107,15.8,108.1"/>
		<path id="Fill-75" class="st2" d="M85.8,115.6c-2.9,0.2-5.3,2.2-8.2,2.6c-2.7,0.3-4.9-0.6-7.5-1.3c-3.1-0.9-5.8-1.3-9-0.5
			c-2.4,0.6-4.7,2.2-7.2,2.4c-4.9,0.4-10.5-5.2-14.3,1.1c-1.8,3,0.8,5,3.6,3.5s1.4-2,5-1.1c2.9,0.7,5.3,1.1,8.3,0.1
			c2.7-0.9,5-2.6,7.9-2.8c2.8-0.2,5.3,1.1,8,1.7c3.3,0.7,6.3,0.2,9.5-0.9c3-1,4.2-1.5,7.2-0.7c1.9,0.6,6.1,2.3,8,0.9
			c3.2-2.5-1.1-2.9-2.8-3.2C91.5,117,88.7,115.4,85.8,115.6"/>
		<path id="Fill-77" class="st2" d="M151.4,114L151.4,114L151.4,114 M148.6,113.4c4.2,0.3,8.7,7.9,3.2,8.2
			C147.8,121.7,143.5,115,148.6,113.4 M148,107.1c-13.2,3.7-7.2,22.3,5.6,20.2c5.8-1,7.8-7.7,5.8-12.7c-0.8-2.1-2.4-3.9-4.3-5.2
			C153.6,108.6,149.6,106.7,148,107.1"/>
		<path id="Image-Border" class="st0" d="M5.8,226.3c-0.4-1.7-0.2-4.4-0.2-5c-0.1-2.9-0.1-5.8-0.2-8.6c-0.3-6.8-0.4-13.7-1-20.6
			c-0.5-6.5-1.8-12.9-1.8-19.4c0-4.5-1.3-15.7,2.6-18.7c6.7-3.9,4,9.9,3.9,12.3c-0.3,7.2,0.1,14.1,0.8,21.2
			c0.7,6.5-0.1,13.1-0.4,19.6c-0.1,3.5-0.2,6.9-0.5,10.4c-0.1,1.1,0,6-0.5,8.6c1.5-0.1,2.8,0,3.6,0c5.4-0.2,10.9-0.3,16.3-0.5
			c20.9-0.8,41.8-0.4,62.6-1.4c19.7-0.9,39.5-1.1,59.3-1.4c1.7,0.2,2.5,2,1.4,3.4s-6.1,1.1-7.7,1.2c-5.6,0.4-11.1,0.6-16.7,0.7
			c-11.8,0.1-23.5,0.6-35.2,1.3c-20.8,1.2-41.7,1.1-62.6,1.9c-5.1,0.2-10.1,0.4-15.2,0.5c-2.7,0.1-9.7,1.7-11-1.5
			C2.6,227.8,3.9,226.8,5.8,226.3z M121.2,145.2c6.3-0.1,12.6,0.1,18.9,0.4c2.8,0.2,5.6,0.3,8.4,0.4c1.6,0.1,5.3-0.5,6.7,0.3
			c5.6,2.9-5.8,3.3-7.2,3.2c-5.8-0.1-11.6-0.5-17.3-0.7c-21.3-0.5-42.7,0.8-64,1.6c-10.2,0.4-20.4,0.5-30.7,1.1
			c-5.6,0.3-11.2,0.7-16.8,1c-2.6,0.1-5.2,0.3-7.7,0.3c-1.6,0-4.8,0.7-6.3,0.1c-1.3-0.5-2.3-1.2-1.6-2.7c0.7-1.6,4-0.9,5.3-1
			c4.9-0.1,9.8-0.4,14.8-0.7c11.2-0.7,22.3-1.5,33.5-1.7C78.6,146.5,99.9,145.4,121.2,145.2z M150.5,152.4c0-2.9,3.5-3.5,5.1-1.5
			c1.5,1.9,0.5,7.7,0.6,9.9c0.1,7.5,0.8,14.9,1.5,22.4c0.7,7.4,1.1,14.8,1.7,22.2c0.2,3.4,2.9,17.1-1,19.1c-4.9,2.5-4-10.4-4.1-12.8
			c-0.4-7.6-1-15.2-1.7-22.8C151.5,176.7,150.5,164.7,150.5,152.4z"/>
		<path id="Image-X" class="st2" d="M86,187.6c6.7,2.4,13.4,4.9,20,7.4c3.5,1.4,7.1,2.8,10.6,4.2c1.8,0.7,9.1,2.4,9.6,4.2
			c0.6,2.5-7.3-0.6-8.5-1c-3.5-1.1-7-2.4-10.5-3.6c-7.8-2.8-15.6-5.7-23.4-8.4c-0.7-0.3-1.5-0.5-2.2-0.8
			c-8.3,3.7-16.6,7.5-24.9,11.3c-4.4,2.1-8.8,4.2-13.2,6.3c-3.3,1.6-9.2,6.1-12.8,6c-1.4,0-2.3-0.3-2.4-2c-0.2-2.1,3.2-3,4.6-3.7
			c4.7-2.4,9.4-4.6,14.2-6.9c9.4-4.5,18.9-8.8,28.5-13c0.1,0,0.1,0,0.2-0.1c-5.3-1.8-10.6-3.5-15.9-5.3c-3-1-24.3-6.2-23.6-9.1
			c0.9-3.2,19.7,4.3,22.6,5.2c7.1,2.3,14.3,4.6,21.4,7.1c17-7.6,34.2-15.8,52-21.4c1.1-0.3,1.8,0.8,1.6,1.8
			c-0.3,1.3-4.3,2.3-5.4,2.8c-4.4,2-8.8,3.9-13.1,5.8c-9.5,4.3-19.1,8.5-28.6,12.7C86.4,187.4,86.2,187.5,86,187.6z"/>
		<path id="Fill-117" class="st2" d="M23.1,241.1c4.4,0.8,7.4,4.9,6.9,9.3c-0.6,5.9-6.5,8.6-12,7.8c-6.2-0.9-7.5-6.1-4.5-11.1
			c0.7-1.1,1.4-2.4,2.6-3c0.8-0.4,1.9,0,2.5-0.4C21.1,242.6,19.7,240.8,23.1,241.1 M21.1,237.3c-5.3,0.7-15.1,6.8-14.6,13
			c0.4,0.7,1.1,1,1.9,0.9c-0.2,1.3-0.1,2.6,0.2,4c0.5,1.7,1.5,3.1,2.9,4.2c2.8,2.3,6.6,2.8,10,2.4c6.5-0.7,11.5-5.2,11.9-11.9
			C33.8,243.3,28.1,236.4,21.1,237.3"/>
		<path id="Fill-119" class="st2" d="M46.8,245.3c-2.4,1.3-6.2,3.2-7.5,5.6c-1.5,2.5,0.1,5.3,3.2,4.1c2.5-1,4-4,6.7-4.9
			c2.3-0.9,3.3-0.4,5.7,0.4c2.5,0.9,4.7,1.7,7.5,1.5c3.4-0.3,6.4-2.3,9.8-2.7c2.8-0.4,5.2,0.7,7.9,1.2c3.1,0.5,5.2-0.7,8.2-1.3
			c2-0.4,5.5,1.3,7,0.7c3.3-1.4-0.2-3.2-2-3.8c-3.1-1-5-0.1-7.9,0.7c-3.2,0.9-4.5,0.2-7.6-0.6c-6.1-1.6-10.8,2.3-16.7,1.6
			C55.7,247,52.5,242.3,46.8,245.3"/>
		<path id="Fill-121" class="st2" d="M146.9,242.3c5.9,5.5-0.7,13.4-7.2,9c-2.3-1.6-2.3-4-0.5-6.3
			C140.8,243,144.4,242.2,146.9,242.3z M144.8,237.9c-5.5,1.1-10.7,3.6-11.2,9.9c-0.5,6.2,5.9,9.1,11.2,8.7
			C156.8,255.6,155.9,235.7,144.8,237.9z"/>
	</g>
	<path id="Fill-79" class="st3" d="M562.1,96c-4.4,0.1-15.3,1.7-16.9,6.9c-1.2,4,2.4,3.1,4.4,1.6c2.6-1.9,5-3.1,8.2-3.7
		c12.5-2.3,24.5,5.8,36.8,6.9c4.7,0.4,10.3,0.6,14.8-0.9c3.2-1.1,3.6-3.4,0-3.8c-3.1-0.3-6.5,0.7-9.7,0.6
		C586.7,103.6,575,95.8,562.1,96"/>
	<g id="Cards" transform="translate(44.000000, 343.000000)" class="st1">
		<path id="Fill-173" class="st2" d="M55.5,0.4c-8.4,0.1-16.8,0.4-25.3,0.9C22.3,1.8,13.6,1.4,5.7,3C3.5,3.4,0.5,5.4,3.4,7.7
			c2.1,1.6,9.7-0.2,12.2-0.4C24.8,6.7,34,6.1,43.2,5.7c8.7-0.3,17.4-0.4,26.1-0.5c1.3,0,3.5-0.4,4.9-0.1c1.9,0.6,1.5,0.7,1.6,3.1
			c0.3,4.4,0.2,8.8,0.1,13.1c-0.1,4.2-0.2,8.5-0.2,12.7c0,3-1,9,0.6,11.7c2.2,3.8,4.4-0.3,4.6-2.8c0.3-4.8,0.2-9.7,0.2-14.5
			c0-4.5,0-9-0.1-13.5c-0.1-3.3,0.4-9-1.4-11.9c-1.8-3-6.1-2.4-9.2-2.5C65.3,0.3,60.4,0.3,55.5,0.4"/>
		<path id="Fill-171" class="st2" d="M1.9,5.8c0,8.5-1,16.9-1.2,25.4c-0.1,3.9-0.4,8.2,0.6,12c1,3.9,4.2,4.7,4.5,0.4
			C6.5,34.9,6.3,25.8,6.9,17c0.2-3.1,1.5-8.8,0.3-11.7C6.1,2.7,1.9,2.2,1.9,5.8"/>
		<path id="Fill-175" class="st2" d="M80.9,43.2c-14.6,1.9-29.9,1.2-44.7,1.5c-7,0.2-14.1,0.2-21.2,0.3c-2.5,0-8.7-0.9-10.9,0.5
			c-3.4,2.2,0.3,3.9,2.5,4c14,0.3,28.1-0.3,42-0.8c6.3-0.2,12.6-0.3,18.8-0.8c3.8-0.3,8.1-0.6,11.8-1.7c0.8-0.2,2.5-0.2,2.7-1.3
			C82.1,44.2,81.9,43.1,80.9,43.2"/>
		<path id="Fill-177" class="st2" d="M20.1,55.5c-4.1,0-16.3-1.9-18,2.1c-2.2,5.3,6.5,4.1,8.9,4c5.3-0.1,10.7-0.2,16-0.1
			c5.3,0,10.5,0,15.7-0.2c1.5,0,5.1,0.6,5.9-1.2c0.7-1.4,0.1-2.5-1.1-3.2c-3-1.8-10.6-0.7-14.1-0.9C29,55.8,24.5,55.5,20.1,55.5"/>
		<path id="Fill-179" class="st2" d="M69.5,56.5c-2.3,0.1-7-0.8-9.1,0.2c-2.4,1.2-1.5,3.1,0.5,3.9c1.4,0.6,7.2,0.3,8.6-0.4
			C71,59.6,72.6,56.3,69.5,56.5"/>
		<path id="Fill-181" class="st2" d="M95,6.6c-2.5,0.7-1.7,14.8-1.8,17c-0.2,6.1-0.9,13.8,1.2,19.7c1.3,3.8,3.8,3.2,3.4-0.7
			c-0.4-3.5-1-6.9-1.3-10.4C95.8,24.3,95,15.9,95.6,8c0.3,0.5,2.6,4.7,3.2,4.4C98.6,12.5,96,6.4,95,6.6"/>
		<path id="Fill-183" class="st2" d="M122.9,1.5c-5,0.1-10,0.2-15.1,0.3c-4,0.1-10.3-0.5-13.9,1.1c-4.4,2-2.3,6.5,1.8,6.5
			c3.6,0.1,7.5-0.7,11.1-0.9c9.9-0.3,19.8-0.4,29.6-0.5c8.9-0.1,18.2,0.9,27.1-0.5c1.3,11.7-2.2,23.4-1,35.2
			c0.2,1.8,0.1,4.4,2.4,4.8c2.9,0.5,3.1-2.4,3.2-4.5c0.3-6,0.1-11.9,0.6-17.9c0.4-5.5,1.2-11.2,0.5-16.7c-0.8-6.8-4.1-6.3-9.9-6.6
			C147.3,1.4,135.1,1.3,122.9,1.5"/>
		<path id="Fill-185" class="st2" d="M106.1,42.9c-2.6,0.1-6.8-0.7-8.4,1.7c-1.7,2.6,0.3,4.8,2.8,5.3c2.9,0.6,6.8-0.2,9.8-0.2
			c3.2,0,6.3,0,9.5,0c13.6,0.1,27.3,0.3,40.9-0.3c1.9-0.1,7.3,0.6,8.6-1.3c1.2-1.6,0.4-3.1-1.2-3.9c-2.5-1.4-7.7-0.8-10.5-0.9
			c-3.5-0.1-6.9-0.2-10.4-0.2C133.5,42.9,119.8,42.5,106.1,42.9"/>
		<path id="Fill-187" class="st2" d="M117.6,54.7c-5.1,0.1-10.5-0.1-15.6,0.6c-4.4,0.7-5,5-0.2,5.5c4.4,0.5,9.7-0.4,14.1-0.7
			c1.6-0.1,3.4,0,4.1-1.7C120.9,56.6,119.4,54.9,117.6,54.7"/>
		<path id="Fill-189" class="st2" d="M156.1,55.1c-2.7,0.1-10.7-1.1-12,2c-2.2,5.2,8.5,3.2,10.6,3.1c2.6-0.1,12.7,1.4,12.7-2.7
			C167.4,53.5,158.6,55.1,156.1,55.1"/>
		<path id="Fill-191" class="st0" d="M1.5,80.8c0,9.4-0.6,18.9,0.3,28.3c0.4,3.9,0.3,11.3,2.5,14.6c1.6,2.3,3.8,2.2,4.7-0.6
			c0.6-1.9-0.3-5.6-0.5-7.6c-0.1-1.9-0.2-3.8-0.3-5.8c-0.2-5-0.2-9.9-0.1-14.9c0.1-4.3,1.1-9.9,0.1-14C7.3,77,1.5,76.1,1.5,80.8"/>
		<path id="Fill-193" class="st0" d="M96,72.5c-16.3,0.4-32.7,0-49,0.9c-8,0.4-16,1.3-24,2.1c-3.9,0.4-7.9,0.9-11.8,1.4
			c-1.2,0.1-11,0.5-7.3,4.3c1.6,1.6,6.8-0.1,8.8-0.3c3.9-0.5,7.9-0.9,11.8-1.3c7.5-0.8,15-1.5,22.6-2c17.7-1,35.6-0.7,53.3-1.3
			c4.8-0.2,9.6-0.3,14.4-0.1c1.3,0,10.5,0.5,6.5-2.9c-1.9-1.6-9.1-0.8-11.5-0.8C105.2,72.3,100.6,72.4,96,72.5"/>
		<path id="Wireframy-Stuff" class="st0" d="M121.4,122.1L121.4,122.1c-0.9,1.3-4.2,1-5.6,1.1c-4.4,0.3-8.7,0.8-13,1.4
			c-8.6,1.3-17.2,2.1-26,2.3c-17.3,0.4-34.6,0-51.9,1.2c-3.8,0.3-7.6,0.7-11.3,1.4c-2.7,0.5-7.9,2.3-8.2-2.2
			c-0.4-5.3,13-5.3,16.9-5.7c16.5-1.5,33.2-1.2,49.7-1c8,0.1,16,0.4,23.9-0.1c8-0.5,16.2-0.4,24.1-1.2c-1-4-0.9-8.9-1.2-12.9
			c-0.7-10.4-0.5-20.8-1-31.1c-0.2-4.6,6-5.3,7.9-1.6c1.9,3.7,0.7,11.2,0.8,15.3c0.3,9.6,2.1,20.3,0.2,29.8
			C126,122.2,123.2,123.9,121.4,122.1z"/>
		<path id="Fill-199" class="st4" d="M131.4,78.7c-2.2,0.3-4,2.2-3.1,4.6c1.2,3,4.9,1.8,7.4,1.6c7.8-0.6,15.8,0.6,23.5-0.3
			c2.1-0.3,5.1-1.4,3.2-4.2c-1.4-2.1-6.6-1.7-8.7-1.9C146.3,77.8,138.9,78,131.4,78.7"/>
		<path id="Fill-201" class="st4" d="M144.5,91.8c-3,0.2-10,0-11.3,3.5c-2.3,6.1,6.6,4,9.3,3.6c3.1-0.4,10.6,0.7,12.2-2.4
			C157.8,91.1,147.1,91.7,144.5,91.8"/>
		<path id="Fill-203" class="st4" d="M136.8,105.3c-1.4,1.4-1.4,4,0,5.4c1.7,1.7,5.6,1.4,7.9,1.5c3.2,0.2,12.4,1.9,14-1.9
			c2.1-5.1-6.2-5-8.9-5.3C146.5,104.7,139.4,102.7,136.8,105.3"/>
		<path id="Fill-205" class="st2" d="M24.4,18.2c0,5.5,8.5,5.5,8.5,0C33,12.7,24.4,12.6,24.4,18.2"/>
		<path id="Fill-207" class="st2" d="M40.7,18.2c0,6.3,9.7,6.2,9.7,0S40.7,11.9,40.7,18.2"/>
		<path id="Fill-209" class="st2" d="M30.8,26.5c-4.7,1.3-0.4,5.3,1.8,6.2c3.5,1.5,8.3,2.5,11.8,0.3c1.4-0.9,2.5-2,1.5-3.7
			c-1.1-1.8-2.6-1-4.2-0.8c-2.1,0.2-3.8,0.2-5.8-0.5C34.4,27.6,32.5,26.1,30.8,26.5"/>
		<path id="Fill-211" class="st2" d="M116.7,18.5c0,3.7,5.7,3.7,5.7,0S116.7,14.8,116.7,18.5"/>
		<path id="Fill-213" class="st2" d="M129.4,19.1c0,4.1,6.4,4.1,6.4,0S129.4,14.9,129.4,19.1"/>
		<path id="Fill-215" class="st2" d="M128.9,28c-3.4,0.4-13.1,1.4-13.6,5.6c-0.8,6.4,9.8,1.2,12.2,0.7c3.1-0.6,5.8-0.5,8.9-0.3
			c1.7,0.1,3.9,0.3,3.8-2.2C140,27.4,131.9,27.6,128.9,28"/>
		<path id="Fill-217" class="st0" d="M44.6,86.8c-2.4,0.6-5.6,4.9-3.9,7.4c2.7,4.2,4-2.3,5.1-2.9c2.1-1.1,3.8,3,6,0.8
			C55.2,88.8,46.8,86.2,44.6,86.8"/>
		<path id="eye" class="st0" d="M72.5,83.7c-2.9,0-9,4.1-9.4,7.1c-0.3,1.8,0.9,3.5,2.9,3.5c2.6,0,3.5-3.4,5.7-4.1
			c2.5-0.8,2.1,1,4.2,1.9c1.6,0.7,3.5,0.4,4-1.5C80.9,87.1,75.4,83.6,72.5,83.7"/>
		<path id="Fill-221" class="st0" d="M50.4,101c-4.6,2.7,3,8.5,5.6,9.2c4,1.1,12-0.9,12.9-5.8c0.4-1.9-0.8-3.7-3-3.3
			c-1.8,0.3-2.9,2.5-4.5,3.3c-2.2,1.1-4.1,1-6-0.6C53.9,102.4,53.1,99.4,50.4,101"/>
		<path id="Fill-223" class="st4" d="M53.7,140.9c-4.1,0.9-8.3,0.3-12.4,1.1c-4.2,0.8-6.7,2.4-10.7,0.8c-0.2-0.1-0.4-0.2-0.6-0.2
			c-3-1.3-6.2-1.7-9.4,0.4c-1.9,1.2-7.6,5.5-6.9,8.1c1.5,5.6,7.9-3.2,9.6-4.1c3.1-1.6,5.3,0.5,8.5,1c3.9,0.7,7-1.3,10.6-2.1
			c4.2-0.9,9-1.3,13.3-1.8c1.7-0.2,8.2,1.1,8.7-1C65.5,139.5,55.3,140.5,53.7,140.9"/>
		<path id="Fill-225" class="st4" d="M83.4,152.2C83.7,152.5,83.5,152.3,83.4,152.2 M95,140.7c3.5-0.4,14.8-2.9,17.1,0.8
			c1.5,2.4-0.9,11.1-3.2,12.3c-1.8,0.9-6.1-0.1-8.1-0.2c-3.7-0.1-7.5-0.2-11.2-0.4c-1.2-0.1-5.3,0.2-6.2-1c-1.2-1.3-1.1-8.3-1.4-10
			C85.3,143.2,91.6,141,95,140.7 M102.5,137.1c-4.5,0.2-9,0.5-13.5,1.1c-2.5,0.3-5,1.2-7.3,1.7c-0.7,0.1-2-0.2-2.9,0.2
			c-2.7,1.3-0.3,10,0.3,12.3c1,3.6,3.5,4.2,7,4.5c4.6,0.4,9.3,0.3,13.9,0.2c4.4-0.1,10.4,0.9,12.9-3.5c1.6-2.9,3.3-9.6,2-12.8
			C113,136.6,106.2,136.9,102.5,137.1"/>
		<path id="quare" class="st2" d="M153.1,154.6C152.9,155,152.9,155,153.1,154.6 M154.1,153.5C154,153.6,153.7,153.9,154.1,153.5
			 M143.3,153.1c2-0.4,4-0.7,6-1.1c-1.9,2.6-3.9,1.6-7.1,1.3C142.6,153.3,143,153.2,143.3,153.1 M133.8,152.2c0.5-0.2,1-0.3,1.5-0.5
			c0,0.4,0.1,0.7,0.2,1.1c-0.9-0.1-1.7-0.2-2.6-0.3C133.3,152.4,133.6,152.3,133.8,152.2 M129.4,148.9c0-0.7,1-0.2,1.6-0.3
			C129.9,149.7,129.3,149.8,129.4,148.9 M145.2,141.1c0.2-0.2,0.4-0.2,0.6,0C145.5,141.2,144.4,141.6,145.2,141.1 M155.4,139.9
			C155.4,139.9,156,140.6,155.4,139.9 M155.1,139.6C155.2,139.7,155.2,139.7,155.1,139.6 M153.8,139.5
			C155.9,139.8,155.7,142.3,153.8,139.5 M129.3,139.3C128.9,139.7,129,139.3,129.3,139.3 M137.3,134.1c-3.5,0.2-10.1,0-13,1.9
			c-3.9,2.5-1.8,11-1.5,14.7c0.5,5.5,3.1,7.1,8.3,7.6c6.2,0.7,12.5,0.8,18.7,0.7c5.6-0.1,8.8-2.1,9.8-8c0.3-1.8,1.1-4.6,1.1-6.3
			c0-1.2-0.6-1.7-0.8-2.8c-1.3-5.8-3.4-6.5-9.4-6.7C146.1,135,141.6,133.9,137.3,134.1"/>
	</g>
	<g id="Profile" transform="translate(297.000000, 339.000000)" class="st1">
		<path class="st2" d="M72,4.9c9,0.2,19.2,5.2,17.8,15.7c-1,7.7-7.7,14-15.5,14.6C66,35.8,57.2,29.4,56,20.9
			C54.8,11.4,63.2,4.7,72,4.9 M67.6,0.6C64,1.2,60.5,3.1,57.3,4.8c-1.2,0.7-7.5,4.7-2.6,5.7C42.9,29.4,70.6,47,86.2,34.7
			c7-5.5,10.7-16,6.2-24.3C87.6,2,76.6-0.7,67.6,0.6"/>
		<path id="Fill-231" class="st2" d="M65.5,16.8c0,3.5,5.5,3.5,5.5,0S65.5,13.2,65.5,16.8"/>
		<path id="Fill-233" class="st2" d="M75.7,17.3c0,3.8,6,3.8,6,0S75.7,13.5,75.7,17.3"/>
		<path id="Fill-235" class="st2" d="M68.8,24.9c-0.8,2.9,8.3,4.4,8.7,1C77.6,24.4,69.3,22.9,68.8,24.9"/>
		<path id="Fill-237" class="st2" d="M95.6,23.1c10.5-1.3,21.4-0.7,32-0.4c2.6,0.1,5.3,0.2,7.9,0.2c1.7,0,5.3,0.8,6.8,0
			c6-3.2-5.8-4.8-7.5-4.9c-10.5-0.9-26.8-1.2-37.3-0.8C94.4,17.4,93.7,23.4,95.6,23.1"/>
		<path class="st4" d="M143,75.5c0.1-11,0.5-22.1,1.3-33.1c0.3-4.5,0.8-9,1.1-13.4c0.2-2.1,0.9-5.1-0.3-6.9
			c-1.3-1.9-4.1-2.3-5.8-0.6c-2,2.6-1.4,7-1.7,10.2c-0.4,4.9-0.9,9.7-1.1,14.6c-0.4,9.5-0.6,19.1,0.2,28.5c0.4,4.5,1.1,8.8,2.2,13.1
			c0.5,2,4.2,10.8,3.4,12c-1.2,1.9-10.2,1.2-12.2,1.2c-5,0.1-10,0.2-15.1,0.3c-4.3,0.1-8.6,0.1-12.9,0.2c-1.7,0-11.7-0.3-9.5,2.2
			c-24.9,1.7-50.3-1.2-75-2.2c-1.3-0.1-3.3-0.4-5.2-0.5c-0.2-0.9-0.4-1.7-0.5-2.3c-0.3-4-0.4-8-0.8-11.9c-0.6-7.3-1.9-14.5-2.6-21.7
			c-0.7-7.3-0.7-14.5-1.1-21.8c-0.1-1.2-0.2-11.5-2.8-13.9C5.8,30,7.8,30,8.9,29.9c9.2-0.7,18.3-2.3,27.4-3.7
			C39,25.7,44.9,26,47,24.7c1.9-1.1,2.6-5.1-0.6-4.8c-9.1,1-18.1,2.5-27.1,4c-2.4,0.4-4.8,0.8-7.2,1.3c-1.6,0.3-5.8,0.3-7.1,1.2
			c-1.5,1.2-1.7,2-1.2,2.5C3.1,28.7,2.2,29,1.2,30c-1.9,2.5-0.1,8.7,0.1,11.7c0.3,3.5,0.4,7.1,0.6,10.7c0.3,6.9,1,13.7,2.1,20.5
			c1.2,7.6,2.3,15.3,3.5,22.9c0.3,2,0.7,3.9,1.3,5.8c-3.3,1.7-1.1,4.4,1.6,4.9c0,0,0,0,0.1,0c0.8,2,2,3.9,2.9,1.2
			c0.1-0.2,0.1-0.5,0.1-0.8c6.9,0.8,14.4,0.3,21.2,0.6c14.6,0.6,29.3,1.5,44,1c5.8-0.2,11.6-0.7,17.4-1.5c3.4-0.5,6.7-1,10.1-1.7
			c0.2-0.1,0.6-0.1,1-0.2c0.1,0,0.1,0,0.2,0c5.1-0.1,10.1-0.2,15.2-0.4c4.3-0.2,8.5-0.3,12.8-0.7c2.6-0.2,8.2-0.2,9.8-2.9
			c1.5-2.4-1-8.6-1.3-11.3C143.2,85.1,142.9,80.3,143,75.5"/>
		<path id="Fill-241" class="st2" d="M91.6,43.6c-4.1,0.3-7.8,2.3-11.9,2.3c-3.4,0-6.8-1-10.3-0.9c-4.1,0.2-6.3,2.8-9.8,3.7
			c-2.8,0.7-4.6-1.5-7.1-2.4c-3.1-1.2-5.5-0.6-8.1,1.2c-2,1.3-6.6,4.4-6.5,7.1c0.1,8.2,9.7-3.1,11.6-3.3c2.6-0.2,5.4,2.7,8.2,2.9
			c3.6,0.2,5.9-2.1,9.3-3c3.4-0.9,7,0.2,10.4,0.5c3.9,0.4,7.2-0.5,10.9-1.4c3.6-0.9,6.7-0.8,10.4-0.1c2.5,0.5,8.6,3.4,9.7-0.3
			C109.8,44.8,94.4,43.4,91.6,43.6"/>
		<path id="Fill-243" class="st2" d="M92.8,59.3c-8.3,0.8-16.7,1.5-25,1.7c-3.6,0.1-17.5-1.5-16.3,3.1c1.1,3.9,20,1.5,23.8,1.2
			C79.6,65,83.8,64.6,88,64c1.5-0.2,5.1,0,6.2-1.3C95.2,61.6,94.7,59.1,92.8,59.3"/>
		<path class="st2" d="M35.5,80.2C35.3,80.3,35.3,80.3,35.5,80.2 M37.2,80.2c2.1-0.1,1.6-1.2,3.7-0.6c1,0.3,1.1-0.1,1.8,0.8
			c1.4,1.8,0.1,5.6-1.3,7.1C36.1,92.8,29.8,80.4,37.2,80.2 M37.2,75c-14.4,0.5-8.4,22.7,4.2,18.2c5.2-1.9,8.4-10.3,5.4-15.1
			c-1.5-2.3-3.4-2.7-5.9-2.9c-0.6,0-1.3,0.8-1.7,0.8C38.4,75.9,38.5,74.9,37.2,75"/>
		<path id="espero" class="st2" d="M71.7,81c-0.3-0.1,4.5,1.3,4,0.8c1.1,1.2-0.4,3.9-1.7,4.4C71,87.3,69.2,82.5,71.7,81 M73.8,75
			c-4.5,0.6-8,2.5-8.6,7.5c-0.6,4.6,2.6,9.3,7.5,9.4C83.4,92.1,83.8,73.6,73.8,75"/>
		<path id="hola" class="st2" d="M122.9,81.2C123.5,89.4,115,81.9,122.9,81.2 M119.2,72.4c-0.7,1.3-0.1,2.6,1,3.4
			c-10.1,2.1-7.8,17.3,2.5,15c5.2-1.1,6.2-6.6,5.4-11.1C127.7,77.5,122.4,67,119.2,72.4"/>
	</g>
	<path id="Fill-251" class="st3" d="M440,419.3c-3,0.5-10.1,3.8-10,7.4c0.1,5.5,6.1-0.5,7.5-1.3c7.2-4.4,16.5,1.3,24,2.5
		c3.4,0.6,10.2,1.6,13.2-0.7c5.4-4.1-7.1-3.1-8.7-3.2C457.3,423,448.7,417.7,440,419.3"/>
	<g id="List" transform="translate(579.000000, 371.000000)" class="st1">
		<path id="Fill-253" class="st4" d="M2.6,9.3c0,5.7-0.3,11.5,0.8,17.1c0.3,1.7,0.6,5,2.4,5.8c1.8,0.9,3.5-0.1,4-2
			c0.5-2.1-0.6-5.4-0.7-7.6c-0.2-3.1-0.2-6.2-0.2-9.2c0-2.2,0.7-5.8-1.9-7C4.9,5.6,2.6,7.2,2.6,9.3"/>
		<path id="Fill-255" class="st4" d="M92.4,0.3C73.5,2.2,54.5,2.6,35.6,3.6C26.8,4,16.3,3.4,8.1,6.8c-1.5,0.6-7,4.1-2.6,5.5
			c1.4,0.4,2.8-1,3.9-1.5c1.9-0.8,4.1-1.1,6.1-1.4C32.7,6.6,50.7,7.1,68,5.8c4.4-0.3,8.9-0.7,13.3-1.1c3.2-0.3,9.8-2.6,12.7-1.4
			c5,2,4.9,15,5,19.4c0.1,2.3-2.2,10.6,2.3,9.7c3.6-0.7,2.3-9.3,2-11.6C102.5,14.7,101.3-0.6,92.4,0.3"/>
		<path id="Fill-257" class="st2" d="M99.3,32.1c-16.3,1.5-33.1,0-49.5,0.6C41.2,33,32.6,33.5,24,33.8C20.3,34,16.6,34,12.9,34
			C11.1,34,3,35.1,8,38.6c2.2,1.6,9.3,0.3,11.8,0.3c3.8,0,7.6-0.2,11.5-0.4c8.9-0.3,17.7-0.8,26.6-1.1c8.5-0.2,16.9-0.3,25.4-0.5
			c4.2-0.1,8.5-0.2,12.7-0.9c0.9-0.1,4-0.2,4.7-1.3C101.2,33.8,100.8,32,99.3,32.1"/>
		<path id="Fill-259" class="st4" d="M19,19.9C18.9,20.1,18.9,20.1,19,19.9 M26.1,17.7C26.3,17.8,26.3,17.8,26.1,17.7 M25.7,17.7
			c3.8,3.9-2.1,8.5-5.6,4.7C16.3,18.4,23.3,17.7,25.7,17.7 M21.7,11.8c-13.1,2.3-8.5,19.8,3.8,17.3c5.4-1.1,8.5-6.5,6.6-11.7
			c-0.7-2-2.3-4.3-4.5-4.9c-1.1-0.3-2.1,0.2-3.1,0.1C23.5,12.4,22.9,11.6,21.7,11.8"/>
		<path id="Fill-261" class="st4" d="M72,16.7c-7.9,0-15.8,0.4-23.8,0.5c-2.4,0-8.7-1-8.7,2.8c0,4.1,6.9,2.6,9.3,2.5
			c7.9-0.2,15.7-0.5,23.6-1.3c2-0.2,8.8,0.1,8.8-2.6C81.1,15.9,73.5,16.7,72,16.7"/>
		<path id="Fill-263" class="st2" d="M90.9,43.4c-19.6,0.5-39.2,0.7-58.7,1.7c-7.3,0.4-14.6,0.7-22,0.7c-1.4,0-4.3-0.5-5.6,0.3
			c-3.6,2.4,0.5,4.5,2.9,4.6c16.1,0.9,32.4-1.3,48.5-1.8c9.4-0.3,18.8-0.4,28.2-0.9c2.6-0.1,5.1-0.3,7.7-0.5
			c1.5-0.1,5.4,0.2,6.6-0.7C103.6,43.1,92.6,43.4,90.9,43.4"/>
		<path id="Fill-265" class="st2" d="M1,53c-0.2,5.1-0.2,10.1,0.5,15.1c0.3,2,0.4,4.2,2.7,4.7c2.1,0.5,3.2-1.1,3.6-2.9
			c1.1-4.3,0.1-10.6,0.1-15.1c0-2.2,0-4.7-2.8-5.2C3,49.3,1.1,50.8,1,53"/>
		<path id="Fill-267" class="st2" d="M111.6,65.2c-31.7,1.7-63.4,3.1-95.1,4.5c-2.5,0.1-21.7-0.1-15,6.6C3.6,78.4,9,77,11.6,76.9
			c4-0.2,8.1-0.3,12.1-0.6c16-0.8,32-1,48-1.9c8.8-0.5,17.6-1.3,26.3-2.3c4.2-0.5,9.3-0.4,13.2-2.1C113.3,69.1,115.5,65,111.6,65.2"
			/>
		<path id="Fill-269" class="st2" d="M93.4,39.5c-2.4,2.4-1.2,7.1-1,10.1c0.2,4.1,0.6,8.2,1.1,12.2c0.3,2.6,0.2,6.7,1.6,9
			c1.6,2.7,5.3,2.4,6.8-0.2c1.3-2.3,0.7-7.1,0.6-9.6c0-3.5-0.3-7-0.5-10.5c-0.2-2.9,0.5-7.6-1.1-10.1C99.2,37.9,95.7,37.2,93.4,39.5
			"/>
		<path id="Fill-271" class="st2" d="M20.9,58.1C20.6,58.3,20.6,58.3,20.9,58.1 M26.5,57.4c5.3,1.1-3.2,7.2-5.9,3
			c-0.4-0.7-0.6-1.5,0-2s1,0.4,1.6,0.2C23.2,58.1,25.5,57.4,26.5,57.4 M25.8,52.4c-3.6,0.3-8.5,0.5-10.3,4.1
			c-2.4,4.8,1.7,9.6,6.4,10.3c4.5,0.7,11.3-1.8,11.7-7.1C33.9,55.4,29.9,52,25.8,52.4"/>
		<path id="Fill-273" class="st2" d="M55.8,54.9c-3.7,0.1-11-1-14.3,0.8c-3.2,1.8-1.8,5,1.1,5.7c1.9,0.5,5.1-0.3,7.1-0.4
			c2.6-0.1,5.3-0.1,7.9-0.2c4.5-0.1,8.9,0,13.3,0c4.5,0,9.2,0.1,13.7-0.2c5.7-0.4,5.6-4.7,0-5.3C75.2,54.5,65.4,54.8,55.8,54.9"/>
		<path id="Fill-275" class="st2" d="M46.3,103.1c0,2,1.8,0,1.8,0S46.3,101,46.3,103.1"/>
		<path id="Fill-277" class="st2" d="M5.3,86.6c0.1,5.9,0.2,11.9,0.4,17.8c0.1,1.9-0.5,5.5,1.8,6.5c2.5,1.1,3.3-1.6,3.6-3.4
			c0.9-5.7,0-12.2-0.1-18c0-1.9,0.4-4.6-1.8-5.6C7.5,83.2,5.3,84.7,5.3,86.6"/>
		<path id="Fill-279" class="st2" d="M102.9,86.7C103.1,87.1,103.1,87.1,102.9,86.7 M103.1,86.7C103.3,86.7,103.8,86.9,103.1,86.7
			 M55.2,81.9C46.1,82,37,82.2,27.9,82.5c-3.9,0.2-7.8,0.3-11.7,0.7c-2.7,0.3-9.6,0.4-11.3,2.6c-3.7,4.6,4.1,3.4,5.8,3
			c3.1-0.7,6.2-0.9,9.3-1.1c6.8-0.4,13.5-0.5,20.3-0.7c18.4-0.4,36.8-0.3,55.1-0.4c1.8,0,5-0.7,6.6,0s1.6,2.5,1.7,4.6
			c0.2,2.7-1.6,8-0.2,10.3c2.1,3.6,5.2,0.5,5.7-2.1c0.7-3.6-0.4-7.9-1.4-11.4c-1.4-4.9-3.4-5-8.1-5.4c-5.5-0.4-11-0.7-16.5-0.8
			C73.9,81.7,64.5,81.7,55.2,81.9"/>
		<path id="Fill-281" class="st2" d="M91.2,106.4c-19.8,2.3-40.1,0.9-60,1c-4.8,0-9.7,0.1-14.5,0.3c-2.6,0.1-8.6-0.6-10.3,1.4
			c-3.7,4.1,3,4.8,5.4,4.6c4.9-0.3,9.8-0.5,14.7-0.5c17.3-0.1,34.7,0.7,52-0.2c7.2-0.4,14.3-1.6,21.4-3c1.6-0.3,12.3-2.4,6.2-4.8
			C102.5,103.7,95,106,91.2,106.4"/>
		<path id="Fill-284" class="st2" d="M33.5,98.8C33.4,99,33.4,99,33.5,98.8 M33.4,98.8C33.3,98.9,33.2,99.2,33.4,98.8 M32.1,97.2
			C32.2,97.2,32.3,97.4,32.1,97.2 M32.1,97.2c0.5,0.6,0.8,1.2,1,1.9C28.9,100.2,27.4,96.9,32.1,97.2 M31.8,97
			C31.8,97,32.4,97.3,31.8,97 M25.1,92.1c-2.7,3.3-4.8,7.1-1.5,10.9c3,3.4,8.9,3.8,12.7,1.6c3.9-2.3,3.5-7.2,0.8-10.4
			c-1.7-2.1-3.1-2-5.7-2.3C29.7,91.6,26.6,90.3,25.1,92.1"/>
		<path id="Fill-286" class="st2" d="M52.5,98.2c0,4.4,19,2.5,22.4,2.5c2.8,0,19.9,1.6,18.7-3c-1-3.7-17.9-1.9-21.4-1.9
			C69,95.8,52.5,93.7,52.5,98.2"/>
	</g>
	<g transform="translate(358.000000, 501.000000)" class="st1">
		<path id="Fill-292" class="st2" d="M25.7,9.4c9.5,1.4,19.4,5.9,19.3,16.9c-0.1,9.3-7.9,19.2-17.9,18.6c-9-0.5-17.5-10.4-18.6-18.8
			C7.9,21.8,9,17,11.6,13.4C14.9,8.7,20.3,8.7,25.7,9.4 M21.2,3.4C14.3,3.4,9.3,5.9,5,11.1c-1.5,1.9-3.3,3.9-4.5,6
			c-1.1,2-0.9,7.1,2.8,4.7c-0.9,9.8,4.8,19.3,13.1,24.3c9,5.5,19.1,4.4,26.5-3.3c6.8-7,9.2-18.8,4.2-27.5
			C42.2,6.8,30.7,3.3,21.2,3.4"/>
		<path id="Fill-294" class="st2" d="M41.8,0.7C37.4,4,33.4,8.2,30.1,12.5c-3.3,4.2-5.4,9.5-9.3,13.1c-2-2.2-4.3-8-8.2-5.7
			c-3.3,1.9-1.2,5.2,0.4,7.4c4.1,5.6,8.7,7.8,14,2.3c4.8-5,7.5-11.7,12-17c2-2.3,5-4.6,6.6-7.2C46.9,3.1,45.1-1.7,41.8,0.7"/>
	</g>
	<g id="Whiteboard-Stuff" transform="translate(477.000000, 137.000000)" class="st1">
		<path class="st2" d="M43.8,44c0.1,0,0.3,0,0.4,0c3.7-0.2,7.4-0.1,11.1-0.2c7.5-0.2,15.4,0.2,22.8-0.6c1.5-0.2,2.1,1.8,1.4,2.8
			c-0.8,1.1-3.2,1.1-4.4,1.2c-3.3,0.5-6.7,0.7-10,0.8c-3.5,0.2-7,0.3-10.6,0.4c-3.1,0.1-9.8,1.4-12.6,0.1c-2.2-1-2.1-2.1-1.3-3
			c-0.5-1.2-0.5-3.2-0.6-4.1c-0.5-3.9-0.8-7.8-0.8-11.8c0-7.8,0-15.9,2.2-23.4C40.5,5.8,40,5.3,40,4.5c0-4.8,17.5-3.6,21-3.7
			c4.4-0.1,8.7-0.1,13.1-0.1c2.9,0,6.8-0.6,9.6,0.1c5.6,1.3,5.2,10.9,5.3,15.5c0.2,8.3,0.1,17-0.6,25.3c-0.2,2.9-2.3,6.5-4.7,2.5
			c-1.3-2.2-0.7-7.3-0.7-9.8c0-8.6,1.3-17.5,0.1-26.1c-0.4-2.8-0.3-3-3.2-2.9c-2.3,0-4.5,0.1-6.8,0.2c-4.5-0.1-9.1,0-13.8,0.1
			c-1.8,0.1-8.1,1.2-13,1.2v0.1c0.1,3.3-1.6,7.4-1.8,10.9c-0.5,8.4,0.1,17-0.7,25.4C43.9,43.5,43.8,43.8,43.8,44z"/>
		<path class="st2" d="M110.1,46.5c-0.6-0.6-1.1-1.4-1.4-2.5c-1.2-3.8-1.3-8-1.4-12c-0.2-8.5-0.1-17.1-0.1-25.6
			c-0.8-1-0.3-2.2,0.7-3.1c2.6-2.2,10.1-1.7,13.4-1.8c4.8-0.3,9.5-0.3,14.3-0.3c5,0,10.1,0.1,15.1,0.2c1.9,0.1,14.9,0.4,9.1,3.5
			c-0.3,0.2-0.7,0.3-1.1,0.5c0.2,1.4,0.3,2.9,0.2,3.6c-0.2,4.5-0.4,9.1-0.6,13.6c-0.2,5.1-0.4,10.1-0.6,15.2
			c-0.1,2.7,0.8,8.9-1.3,10.8c-1.4,1.3-2.4,1-3.1,0.2c-5.1,1.5-16.8,0.5-18.9,0.5c-3.8,0-24.6,2.5-24.6-2
			C109.8,47,109.9,46.7,110.1,46.5z M113.5,44.9c5.8-1.2,16.6-0.4,18.9-0.4c4.2,0,8.5,0,12.7,0.2c1.3,0.1,4.5-0.2,7.1,0.1
			c0-0.2,0-0.4,0-0.6c-0.2-4.6,0-9.2,0.2-13.7c0.1-4.6,0.4-9.2,0.6-13.8c0.1-2.4-0.5-7.3,0.1-10.7c-3.1-0.1-6.3-0.4-8.4-0.4
			c-4.9,0-9.7-0.1-14.6,0c-5.3,0.1-10.6,0.2-15.8,0.9c-0.3,0-0.6,0.1-1,0.2c0.8,3.3-0.2,8.7-0.2,11.7c0,8.6,0.3,17.2,0.5,25.8
			C113.5,44.4,113.5,44.7,113.5,44.9z"/>
		<path id="Fill-135" class="st4" d="M61.3,48.1c-3.1,1.8-1.4,9.1-0.4,11.7c1.8,4.2,5.4,7.4,9.3,9.6c7.9,4.4,19.2,3.2,25.2,10.8
			c0.1,0.1,2.1,2.1,2.6-0.5c0.4-2.2-3.5-5.5-5-6.6c-4.2-3.1-9.7-4.1-14.6-5.6c-5.2-1.6-11-4.7-13.2-10.1
			C64.6,55.4,66,45.3,61.3,48.1"/>
		<path id="Fill-137" class="st4" d="M132.8,51.6c-2.9,0.8-1,4.7-1,6.7c0,2.5-0.8,5-2.3,7c-3.9,5-11.4,5.7-17,7.2
			c-4.1,1-13.9,3.3-14.3,8.8c-0.4,6.2,8.2-1.3,9-1.7c8.1-3,18.6-3.5,24.8-10.1c2.6-2.7,4.1-6.3,4.3-10
			C136.4,57.5,136.5,50.6,132.8,51.6"/>
		<path id="Fill-139" class="st2" d="M94.4,85.6c11.9-3.1,23,5.2,24.4,17.2c1.5,12.7-8.1,22.9-20.7,23.5
			c-11.1,0.5-24.5-7.5-24.6-19.7C73.5,95.1,84.5,88.2,94.4,85.6z M100.1,94.2c-2,1.2-2.4-1.9-3.9-2.3s-3.8,1.1-5,2
			c-2.1,1.5-7.7,10.3-10.5,5.5c-8.4,14.4,12.5,25.2,24.3,19.8c13-6,10.5-27.9-4.9-28C100.9,92,101.4,93.4,100.1,94.2z"/>
		<path id="Fill-141" class="st2" d="M89.3,102.8c0,2.6,4.2,2.6,4.2,0C93.4,100.2,89.3,100.1,89.3,102.8"/>
		<path id="Fill-143" class="st2" d="M96.6,102.3c0,3.2,5.1,3.2,5.1,0C101.7,99.1,96.6,99,96.6,102.3"/>
		<path id="Fill-145" class="st2" d="M91.4,109.8c-4.2,2.5,7.7,7.3,8.2,2.3c0.2-2.1-1.9-1.6-3.3-1.7C95,110.3,92.6,109.1,91.4,109.8
			"/>
		<path id="Fill-147" class="st4" d="M89.6,127.2c0.2,6.3,0.1,12.5,1.3,18.7c0.2,1.2,0.4,5.4,1.3,6.3c2.3,2.1,2.3-2,2.4-3.5
			c0.3-5.6-0.3-11.4-0.4-17.1c0-1.2,0.3-3.7-0.3-4.9C93,124.8,89.5,124.2,89.6,127.2"/>
		<path id="Fill-149" class="st4" d="M85.1,122.1c-9.1,10.3-21.7,9.5-34.4,10.4c-6.7,0.5-13.5,1.4-18.9,5.8c-2.5,2-4.7,4.5-6.1,7.4
			c-0.6,1.3-3.6,8.5,0.9,6.8c1.6-0.6,3.2-5.4,4.2-6.8c2-2.7,4.5-4.9,7.5-6.4c5.8-2.8,12.8-2.7,19.2-3.1c6.6-0.4,13.7-0.7,19.8-3.6
			c2.9-1.4,5.6-3,7.9-5.2c0.8-0.8,2.6-2.1,2.7-3.3C88.1,122.7,86.8,120.2,85.1,122.1"/>
		<path id="Fill-151" class="st2" d="M39,153.6c-8.6,0.3-17.1,0.6-25.7,1.2c-1.8,0.1-7.6-0.2-6.1,3.4c1.2,2.9,8.3,1,10.7,0.8
			c8.9-0.5,17.9-0.7,26.8-1.5c2-0.2,11-0.1,7.3-3.7C50.2,152.1,41.5,153.5,39,153.6"/>
		<path id="Fill-153" class="st2" d="M1.7,157.7c-2.7,3.6-1.5,12.2-1.3,16.5c0.2,4.1-0.6,11.7,4.8,12.3c-1.7-0.2,1.3,0.1,1.8,0.1
			c1.1,0.1,2.2,0.1,3.3,0.1c2.5,0,5.1,0,7.6-0.1c5.7-0.1,11.5-0.3,17.2-0.6c2.4-0.1,15.5,0,16-2.5c0.7-3.2-11.9-1.4-14.1-1.3
			c-5.5,0.3-10.9,0.3-16.4,0.4c-2.7,0-5.4,0.1-8.1,0c-1.1,0-5.6,0.4-6.2-0.3c-0.6-0.6-0.1-6.5-0.1-7.4c0-2.9,0-5.8,0.1-8.8
			c0.1-2,1.1-5.7,0.3-7.5C5.6,156.9,3.2,156.2,1.7,157.7"/>
		<path id="Fill-155" class="st2" d="M45.9,157.9c0.2,6.5,0.2,13.1,1.7,19.5c0.5,2.1,1.2,6.5,3.4,7.6s4.2-0.5,4.3-2.7
			c0.2-2.8-1.3-6.4-1.6-9.3c-0.4-3.3-0.6-6.7-0.7-10c-0.1-2.5,0.7-6.3-1.7-7.9C49.1,153.6,45.8,155.1,45.9,157.9"/>
		<path id="Fill-157" class="st2" d="M63,156.3c-2.7,2.7-1.5,11.1-1.1,14.5c0.2,2.5,3,14.8,7.1,8.4c1.8-2.8-0.5-10.3-0.5-13.7
			c0-2.1,0.8-4.8,0.4-6.8C68.4,156,65.4,153.9,63,156.3"/>
		<path class="st2" d="M125.7,178.2c0.6,0.6,0.8,1.5,0.5,2.4c-0.9,2.1-4.3,1.7-6.1,1.8c-6.1,0.5-12.3,0.9-18.4,0.9
			c-5.9,0.1-11.9-0.1-17.8,0c-4.9,0-10.1,1.1-15,0.8c-2-0.1-4.2-0.8-3.7-3.4c0.5-2.3,2.8-2.4,4.7-2.6c5.8-0.6,11.6-0.8,17.4-0.8
			c12.2,0,24.5,0,36.7-0.1c0.5,0,1,0.2,1.4,0.5c-0.6-0.8-0.3-1.9-0.5-3c-0.3-3-0.5-6-1.1-9c-0.5-2.4-0.8-6.5-3-8.1
			c-2.4-1.7-7.9-1.1-10.8-1.2c-7.9-0.2-15.8,0.4-23.6,1.1c-3.6,0.3-7.2,0.6-10.7,1.2c-2,0.4-7.7,3.2-9.3,1.5
			c-3.8-4.3,12.8-6,15.1-6.3c8-0.8,16-1.4,24.1-1.5c5.4,0,14.8-0.5,18.8,4c2.4,2.7,3.2,7.1,4.2,10.4c0.7,2.6,2.7,7.2,1.3,9.9
			c-0.6,1.2-1.6,2.2-3.2,1.8C126.2,178.5,126,178.4,125.7,178.2z"/>
		<path id="Line" class="st4" d="M166.7,144.4C167.1,144.8,167.1,144.8,166.7,144.4 M112.5,117.9c-4.9,2.9,4.1,11.3,6.4,12.6
			c5.2,2.9,12.3,3.4,18,4.2c7.3,1,15.2,1.4,22.3,3.8c3,1,4.9,2.6,6.8,5.1c1,1.2,3.4,6.6,5.6,5.3c4.4-2.5-7.4-13.2-10-14.4
			c-5.9-2.6-12.9-3.3-19.2-4.4c-5.9-0.9-11.9-1.6-17.6-3.3c-3.2-0.9-5.4-2.4-7.2-5.2C116.4,119.8,115.5,116.1,112.5,117.9"/>
		<path class="st2" d="M138.6,179.7c-1.5-2.8-2.1-8.2-2.3-9.2c-0.6-4.6-0.6-9.1-0.5-13.7c0-2.5,2.9-3.7,4.8-2.3c2.5-1,6.7-1.2,9-1.4
			c3.7-0.4,7.5-0.5,11.2-0.7c8.7-0.5,17.5-1.5,26.2-1.7c2.6-0.1,6.1-0.3,8.2,1.6c2.4,2.2,2.9,7.7,3.6,10.6c0.8,3.2,1.7,6.5,2,9.7
			c0.1,0.8,0.3,2.1,0.2,3.3c1.1,0.1,1.7,1.2,1.6,2.4c-0.2,2.1-3.2,2.4-4.9,2.8c-5.8,1.1-12,0.9-17.8,1c-12.3,0.3-25.4,2.3-37.6,1.1
			C140.3,183.1,138.1,182.3,138.6,179.7z M143,177.2c0.5,0,1,0,1.4,0c6.2-0.1,12.3-0.3,18.5-0.5c6.3-0.2,12.6-0.5,18.9-0.6
			c5-0.1,10.2,0.4,15.2,0.2c-1.1-2.8-0.9-7.3-1.5-10.2s-0.8-6.4-2-9.1c-1.3-3.1-2.5-2.4-5.9-2.1c-3.5,0.2-7.1,0.6-10.6,0.9
			c-7.8,0.6-15.5,1-23.3,1.6c-4,0.3-7.9,1.4-11.8,1.9c-0.1,1.4-0.3,2.8-0.2,3.8c0.1,3,0.4,6,0.6,9
			C142.4,173.2,142.9,175.3,143,177.2z"/>
	</g>
</g>
</svg>
